<svg xmlns="http://www.w3.org/2000/svg" width="40" height="40" viewBox="0 0 40 40">
  <g fill="none" fill-rule="evenodd">
    <path fill="#333" d="M40,20 C40,8.95459041 31.0458217,0 20,0 C8.95417834,0 0,8.95459041 0,20 C0,31.0458217 8.95417834,40 20,40 C31.0458217,40 40,31.0458217 40,20 L40,20 Z"/>
    <path fill="#DDD" d="M37.1309385,19.8734841 C37.1309385,10.5354054 29.4891232,2.96552632 20.0623053,2.96552632 C10.6354874,2.96552632 2.99367212,10.5354054 2.99367212,19.8734841 C2.99367212,29.2115628 10.6354874,36.7818421 20.0623053,36.7818421 C29.4891232,36.7818421 37.1309385,29.2115628 37.1309385,19.8734841"/>
    <path fill="#333" d="M20,8.33333333 C15.485,8.33333333 11.8333333,11.985 11.8333333,16.5 C11.8333333,22.625 20,31.6666667 20,31.6666667 C20,31.6666667 28.1666667,22.625 28.1666667,16.5 C28.1666667,11.985 24.515,8.33333333 20,8.33333333 L20,8.33333333 Z M20,19.4166667 C18.39,19.4166667 17.0833333,18.11 17.0833333,16.5 C17.0833333,14.89 18.39,13.5833333 20,13.5833333 C21.61,13.5833333 22.9166667,14.89 22.9166667,16.5 C22.9166667,18.11 21.61,19.4166667 20,19.4166667 L20,19.4166667 Z"/>
  </g>
</svg>
