<svg xmlns="http://www.w3.org/2000/svg" width="24" height="24" viewBox="0 0 24 24">
  <g fill="none" fill-rule="evenodd">
    <rect width="24" height="24"/>
    <path fill="#333" d="M5.7578,14.2417 C4.6238,13.1097 3.9998,11.6027 3.9998,9.9997 C3.9998,8.3967 4.6238,6.8907 5.7578,5.7577 C6.8908,4.6237 8.3978,3.9997 9.9998,3.9997 C11.6028,3.9997 13.1088,4.6237 14.2418,5.7587 C15.3758,6.8907 15.9998,8.3967 15.9998,9.9997 C15.9998,11.6027 15.3758,13.1097 14.2418,14.2417 C13.1088,15.3757 11.6028,15.9997 9.9998,15.9997 C8.3978,15.9997 6.8908,15.3757 5.7578,14.2417 L5.7578,14.2417 Z M21.6558,20.2927 L16.2928,14.9297 C17.3958,13.5287 17.9998,11.8117 17.9998,9.9997 C17.9998,7.8627 17.1678,5.8537 15.6558,4.3437 C14.1458,2.8327 12.1368,1.9997 9.9998,1.9997 C7.8628,1.9997 5.8548,2.8327 4.3438,4.3437 C2.8328,5.8537 1.9998,7.8627 1.9998,9.9997 C1.9998,12.1377 2.8328,14.1457 4.3438,15.6567 C5.8548,17.1677 7.8628,17.9997 9.9998,17.9997 C11.7868,17.9997 13.4798,17.4097 14.8718,16.3367 L20.2418,21.7067 L21.6558,20.2927 Z"/>
  </g>
</svg>